<?xml version="1.0" encoding="UTF-8"?>
<svg id="a" data-name="svg1" xmlns="http://www.w3.org/2000/svg" viewBox="0 0 341.87 340.99">
  <path id="b" data-name="path114-7" d="M41.41,223.7c1.61,4.73,3.64,11.13,5.29,16.11.32.98.13.76,1.36.8,5.05.04,11.94-.05,16.68.06.03.06-.68.52-1.77,1.34-3.63,2.64-7.97,5.81-11.68,8.51-.98.75-.96.46-.64,1.45.29.89.57,1.77.87,2.7,1.2,3.92,3.34,9.91,4.27,13.43-3.99-2.84-9.33-6.75-13.49-9.75-1.09-.76-.7-.76-1.79,0-4.1,2.93-9.65,7.06-13.53,9.75,1.37-4.56,3.57-11.05,5.09-15.87.39-1.27.51-.9-.55-1.7-3.62-2.64-7.78-5.67-11.34-8.26-1.17-.86-1.98-1.42-2.1-1.55,4.72-.21,11.82-.02,16.93-.1,1.04,0,.77.11,1.18-1.05,1.61-4.87,3.63-11.26,5.21-15.85h.01Z" fill="#c8c2df"/>
  <path id="c" data-name="path115-6" d="M95.12,277c1.61,4.73,3.64,11.13,5.29,16.11.32.98.13.76,1.36.8,5.05.04,11.94-.05,16.68.06.03.06-.68.52-1.77,1.34-3.63,2.64-7.97,5.81-11.68,8.51-.98.75-.96.46-.64,1.45.29.89.57,1.77.87,2.7,1.2,3.92,3.34,9.91,4.27,13.43-3.99-2.84-9.33-6.75-13.49-9.75-1.09-.76-.7-.76-1.79,0-4.1,2.93-9.65,7.06-13.53,9.75,1.37-4.56,3.57-11.05,5.09-15.87.39-1.27.51-.9-.55-1.7-3.62-2.64-7.78-5.67-11.35-8.26-1.17-.86-1.98-1.42-2.1-1.55,4.72-.21,11.83-.02,16.93-.1,1.04,0,.77.11,1.18-1.05,1.61-4.87,3.63-11.26,5.21-15.85h.01Z" fill="#c8c2df"/>
  <path id="d" data-name="path116-1" d="M23.34,148.69c1.58,4.61,3.59,10.98,5.21,15.85.41,1.16.14,1.05,1.18,1.05,5.09.07,12.24-.11,16.93.1-.12.13-.93.69-2.1,1.55-3.57,2.6-7.72,5.63-11.34,8.26-1.06.8-.94.43-.55,1.7,1.52,4.81,3.73,11.33,5.09,15.87-3.91-2.71-9.41-6.81-13.53-9.75-1.09-.76-.7-.76-1.79,0-4.15,2.99-9.53,6.93-13.49,9.75.94-3.54,3.06-9.49,4.27-13.43.3-.93.58-1.81.87-2.7.32-.98.34-.69-.64-1.45-3.71-2.7-8.06-5.87-11.68-8.51-1.09-.81-1.8-1.27-1.77-1.34,1.02-.07,4.65-.04,6.5-.05,3.36,0,6.85-.01,10.18-.02,1.23-.03,1.04.19,1.37-.8,1.64-4.97,3.68-11.4,5.29-16.11h.01Z" fill="#c8c2df"/>
  <path id="e" data-name="path117-4" d="M40.78,75.14c1.58,4.61,3.59,10.98,5.21,15.85.41,1.16.14,1.05,1.18,1.05,5.09.07,12.24-.11,16.93.1-.12.13-.93.69-2.1,1.55-3.57,2.59-7.72,5.62-11.34,8.26-1.06.8-.94.43-.55,1.7,1.52,4.81,3.73,11.33,5.09,15.87-3.91-2.71-9.41-6.81-13.53-9.75-1.09-.76-.7-.76-1.79,0-4.15,2.99-9.53,6.93-13.49,9.75.94-3.54,3.06-9.49,4.27-13.43.3-.93.58-1.81.87-2.7.32-.98.34-.69-.64-1.45-3.71-2.7-8.06-5.87-11.68-8.51-1.09-.81-1.8-1.27-1.77-1.34,1.02-.07,4.65-.04,6.5-.05,3.36,0,6.85-.01,10.18-.02,1.23-.03,1.04.19,1.37-.8,1.64-4.97,3.68-11.4,5.29-16.11h.01Z" fill="#c8c2df"/>
  <path id="f" data-name="path118-2" d="M95.29,18.83c1.61,4.73,3.64,11.13,5.29,16.11.32.98.13.76,1.37.8,5.05.04,11.94-.05,16.68.06.03.06-.68.52-1.77,1.34-3.63,2.64-7.97,5.81-11.68,8.51-.98.75-.96.46-.64,1.45.48,1.47.94,2.9,1.43,4.42,1.01,3.34,3,8.84,3.71,11.7-3.97-2.83-9.34-6.75-13.49-9.74-1.09-.76-.7-.76-1.79,0-4.1,2.93-9.63,7.05-13.53,9.75,1.37-4.56,3.57-11.05,5.09-15.87.39-1.27.51-.9-.55-1.7-3.62-2.64-7.78-5.67-11.35-8.26-1.17-.86-1.98-1.42-2.1-1.55,4.72-.21,11.83-.02,16.93-.1,1.04,0,.77.11,1.18-1.05,1.61-4.87,3.63-11.26,5.21-15.85h.01Z" fill="#c8c2df"/>
  <path id="g" data-name="path119-3" d="M300.46,223.7c-1.61,4.73-3.64,11.13-5.29,16.11-.32.98-.13.76-1.36.8-5.05.04-11.94-.05-16.68.06-.03.06.68.52,1.77,1.34,3.63,2.64,7.97,5.81,11.68,8.51.98.75.96.46.64,1.45-.29.89-.57,1.77-.87,2.7-1.2,3.92-3.34,9.91-4.27,13.43,3.99-2.84,9.33-6.75,13.49-9.75,1.09-.76.7-.76,1.79,0,4.1,2.93,9.65,7.06,13.53,9.75-1.37-4.56-3.57-11.05-5.09-15.87-.39-1.27-.51-.9.55-1.7,3.62-2.64,7.78-5.67,11.34-8.26,1.17-.86,1.98-1.42,2.1-1.55-4.72-.21-11.83-.02-16.93-.1-1.04,0-.77.11-1.18-1.05-1.61-4.87-3.63-11.26-5.21-15.85h-.01Z" fill="#c8c2df"/>
  <path id="h" data-name="path120-2" d="M246.75,277c-1.61,4.73-3.64,11.13-5.29,16.11-.32.98-.13.76-1.36.8-5.05.04-11.94-.05-16.68.06-.03.06.68.52,1.77,1.34,3.63,2.64,7.97,5.81,11.68,8.51.98.75.96.46.64,1.45-.48,1.47-.94,2.9-1.43,4.42-1.01,3.34-3,8.84-3.71,11.7,3.97-2.83,9.34-6.75,13.49-9.75,1.09-.76.7-.76,1.79,0,4.1,2.93,9.63,7.05,13.53,9.75-1.37-4.56-3.57-11.05-5.09-15.87-.39-1.27-.51-.9.55-1.7,3.62-2.64,7.78-5.67,11.35-8.26,1.17-.86,1.98-1.42,2.1-1.55-4.72-.21-11.83-.02-16.93-.1-1.04,0-.77.11-1.18-1.05-1.61-4.87-3.63-11.26-5.21-15.85h-.01Z" fill="#c8c2df"/>
  <path id="i" data-name="path121-2" d="M318.52,148.69c-1.61,4.73-3.64,11.13-5.29,16.11-.32.98-.13.76-1.36.8-5.05.04-11.94-.05-16.68.06-.03.06.68.52,1.77,1.34,3.63,2.64,7.97,5.81,11.69,8.51.98.75.96.46.64,1.45-.29.89-.57,1.77-.87,2.7-1.2,3.92-3.34,9.91-4.27,13.43,3.99-2.84,9.33-6.75,13.49-9.75,1.09-.76.7-.76,1.79,0,4.1,2.93,9.65,7.06,13.53,9.75-1.37-4.56-3.57-11.05-5.09-15.87-.39-1.27-.51-.9.55-1.7,3.62-2.64,7.78-5.67,11.34-8.26,1.17-.86,1.98-1.42,2.1-1.55-4.72-.21-11.82-.02-16.93-.1-1.04,0-.77.11-1.18-1.05-1.61-4.87-3.63-11.26-5.21-15.85h-.01Z" fill="#c8c2df"/>
  <path id="j" data-name="path122-1" d="M301.09,75.14c-1.57,4.61-3.59,10.98-5.2,15.85-.41,1.16-.14,1.05-1.18,1.05-5.1.07-12.24-.11-16.93.1.12.13.93.69,2.1,1.55,3.57,2.59,7.72,5.62,11.34,8.26,1.06.8.94.43.55,1.7-.42,1.3-.83,2.56-1.26,3.91-1.09,3.47-2.94,8.89-3.83,11.96,3.91-2.71,9.41-6.81,13.53-9.75,1.09-.76.7-.76,1.79,0,4.15,2.99,9.53,6.93,13.49,9.75-1.26-4.55-3.63-11.25-5.14-16.13-.32-.98-.34-.69.64-1.45,3.71-2.7,8.06-5.87,11.68-8.51,1.09-.81,1.8-1.27,1.77-1.34-1.02-.07-4.65-.04-6.5-.05-3.36,0-6.85-.01-10.18-.02-1.23-.03-1.04.19-1.37-.8-1.65-4.97-3.68-11.4-5.29-16.11h-.01Z" fill="#c8c2df"/>
  <path id="k" data-name="path123-6" d="M246.58,18.83c-1.61,4.73-3.64,11.13-5.29,16.11-.32.98-.13.76-1.36.8-5.05.04-11.94-.05-16.68.06-.03.06.68.52,1.77,1.34,3.63,2.64,7.97,5.81,11.68,8.51.98.75.96.46.64,1.45-.29.89-.57,1.77-.87,2.7-1.2,3.92-3.34,9.91-4.27,13.43,3.99-2.84,9.33-6.75,13.49-9.74,1.09-.76.7-.76,1.79,0,4.1,2.93,9.65,7.06,13.53,9.75-1.37-4.56-3.57-11.05-5.09-15.87-.39-1.27-.51-.9.55-1.7,3.62-2.64,7.78-5.67,11.34-8.26,1.17-.86,1.98-1.42,2.1-1.55-4.72-.21-11.82-.02-16.93-.1-1.04,0-.77.11-1.18-1.05-1.61-4.87-3.64-11.26-5.21-15.85h-.01Z" fill="#c8c2df"/>
  <path id="l" data-name="path124-8" d="M171.23,0c-1.57,4.61-3.59,10.98-5.21,15.85-.41,1.16-.14,1.05-1.18,1.05-5.09.07-12.24-.11-16.93.1.12.13.93.69,2.1,1.55,3.57,2.59,7.72,5.62,11.34,8.26,1.06.8.94.43.55,1.7-.42,1.3-.83,2.56-1.26,3.91-1.09,3.47-2.94,8.89-3.83,11.96,3.91-2.71,9.41-6.81,13.53-9.75,1.09-.76.7-.76,1.79,0,4.15,2.99,9.53,6.93,13.49,9.75-1.26-4.55-3.63-11.25-5.14-16.13-.32-.98-.34-.69.64-1.45,3.71-2.7,8.06-5.87,11.68-8.51,1.09-.81,1.8-1.27,1.77-1.34-1.02-.07-4.65-.04-6.5-.05-3.36,0-6.85-.01-10.18-.02-1.23-.03-1.04.19-1.37-.8-1.65-4.97-3.68-11.4-5.29-16.11h-.01Z" fill="#c8c2df"/>
  <path id="m" data-name="path125-5" d="M171.23,296.59c-1.57,4.61-3.59,10.98-5.21,15.85-.41,1.16-.14,1.05-1.18,1.05-5.09.07-12.24-.12-16.93.1.12.13.93.69,2.1,1.55,3.57,2.6,7.72,5.63,11.34,8.26,1.06.8.94.43.55,1.7-.42,1.3-.83,2.56-1.26,3.91-1.09,3.47-2.94,8.89-3.83,11.96,3.91-2.71,9.41-6.81,13.53-9.75,1.09-.76.7-.76,1.79,0,4.15,2.99,9.53,6.93,13.49,9.75-1.26-4.55-3.63-11.25-5.14-16.13-.32-.98-.34-.69.64-1.45,3.71-2.7,8.06-5.87,11.68-8.51,1.09-.81,1.8-1.27,1.77-1.34-1.02-.07-4.65-.04-6.5-.05-3.36,0-6.85,0-10.18-.01-1.23-.03-1.04.19-1.37-.8-1.65-4.97-3.68-11.4-5.29-16.11h-.01Z" fill="#c8c2df"/>
  <path id="n" data-name="path34700" d="M121.86,235.61c-.88-.4-2.85-.56-3.8-.74-3.67-.89-7.19-2.53-10.22-4.69-3.24-2.31-5.81-5.53-7.99-8.91-.69-.85-1.35-2.26-1.74-3.53-.54-1.07-.99-2.52-1.41-3.82-.35-.85-.49-1.04-.57-2.12-.22-2.49-.26-7.28-.03-10.18.09-1.22.21-1.37.62-2.43.3-.82.49-2.08.86-2.92,1.53-3.07,2.94-6.72,5.78-8.91,2.95-4.13,7.52-6.45,12.14-8.43,1.02-.36,1.56-.87,2.69-.9,3.14-.28,8.98-.28,12.57-.04,1.36.03,1.77.35,2.98.77,3.65.92,6.89,3.35,9.8,5.55,3.26,2.49,5.71,6.18,7.78,9.71.49,1.18.89,2.57,1.36,3.58.35.96.5,2.51.77,3.42.99,2.63.64,6.09.52,8.87-.08.94-.26,1.04-.5,1.97-.12.45-.31,1.59-.37,1.93-1.66,7.56-7.33,13.78-13.55,17.9-2.03,1.38-4.89,2.45-7.52,3.16-.88.2-2.19.28-3.15.52-1.18.39-2.18.62-3.49.62-1.09,0-2.43.01-3.36-.3l-.16-.06Z" fill="#c8c2df"/>
  <path id="o" data-name="path34739" d="M213.93,235.61c-.95-.41-2.86-.54-3.86-.72-1.99-.35-3.76-1.22-5.52-1.96-3.14-1.57-5.94-3.75-8.46-6.02-2.06-2.74-4.23-5.23-5.74-8.25-.48-1.32-1.05-2.14-1.4-3.62-.17-.75-.34-1.66-.5-2.18-.26-.86-.4-.89-.47-1.81-.12-1.58-.19-3.89-.15-5.63.09-1.79-.07-3.53.63-5.13.59-2.42,1.4-5,2.55-7.21.96-1.86,2.15-3.33,3.13-4.98,1.49-1.39,3.41-3.28,5.1-4.54.95-.69,2.79-1.93,4.05-2.75,1.79-.99,3.57-1.73,5.42-2.26.86-.42,1.32-.52,2.35-.59,2.63-.21,7.92-.23,10.9-.04,1.34.1,1.92.14,3.1.69,4.37,1.39,9.14,3.7,12.19,7.32,3.28,3.26,5.89,6.9,7.3,11.35.21.8.44,2.05.67,2.71.33.93.49,1.09.57,2.31.2,2.51.17,6.68-.02,9-.09,1.22-.25,1.39-.58,2.34-.39,1.46-.8,3.13-1.6,4.47-1.36,3.24-3.38,5.44-5.36,8.19-2.6,2.96-5.9,5.03-9.33,6.81-1.47.66-3.01,1.22-4.65,1.67-1.01.2-2.22.3-3.19.52-1.07.23-1.18.47-2.33.58-1.47.12-3.3.17-4.64-.22l-.16-.06Z" fill="#c8c2df"/>
  <path id="p" data-name="path34778" d="M172.11,225.25c-3.64-1.84-4.06-6.19-4.23-10.12-.2-2.85-.17-6.04-.71-8.79-.56-1.78-.55-7.53-.37-10.72.03-.98.29-1.63.75-2.49,1.62-3.07,3.14-6.28,4.72-9.28.5-.86.04-.82-1.1-.92-3.16-.09-7.38-.38-10.36.18-.34.13-.25.51.09,1.13.48.95,1.28,1.99,2.03,2.83,1.5,1.46,1.53,3.51,1.28,5.5-.2,3.84-4.29,3.87-7.21,3.28-1.15-.33-1.91-1.51-2.53-2.49-1.46-2.21-2.94-4.23-4.56-6.25-1.52-1.9-2.48-3.61-3.88-5.59-.54-.86-.96-1.43-1.22-2.54-.46-2.09,0-4.58,2.15-5.33.83-.43,2.26-.68,3.27-.96.86-.24,1.11-.41,2.27-.55,1.8-.24,3.78-.32,5.55-.58,3.21-.84,7.13-.98,10.69-1.36,1.98-.12,3.16-.62,5.05-.91.84-.15,1.99-.01,2.4-.77.2-.5-.14-1.08-.39-1.56-.83-1.29-1.71-2.6-2.46-3.95-1.46-1.89-2.52-4.09-3.78-6.14-.57-.96-1.49-2.28-2.25-3.32-.67-1.18-1.33-2.56-2.12-3.5-1.69-2.62-1.91-4.15-5.46-3.83-.97.09-1.18.41-1.53,1.06-1.77,2.37-15.46,15.97-20.63,20.54-1.17,1-2.5,2.28-4.2,1.66-2.7-.96-3.64-3.18-2.77-5.82,1.23-2.45,5.61-6.31,7.92-8.78,3.44-3.42,15.09-15.12,17.46-17.44,1.28-1.23,3.52-3.32,4.36-4.54.65-.95,1.64-1.93,1.45-3.3-.4-4.55-4.14-2.43-7.08-3.51-3.25-1.29-5.93-4.49-6.83-7.65-.74-1.9-.7-4.18.2-6.02.81-1.96,1.89-4.06,3.8-5.2,2.38-1.61,5.18-2.6,7.95-2.13,3.98.81,7.61,4.05,8.91,7.87.31,1.35.28,4.72-.02,6.12-.81,1.93-.46,2.92,1.16,4.19,1,.8,2.92.69,3.92,1.71,2.9,3.9,5.53,8.07,8.12,12.13,3.61,4.73,6.47,10.25,9.82,15.07.88,1.49,1.93,2.71,2.73,4.1,1.7,3.24,3.97,5.75,4.9,9.29.21,2.12.45,4.71-.12,6.76-2.58,3.7-5.81,7.45-8.73,10.87-1.52,2.02-3.11,3.9-4.75,5.78-.81,1.07-1.77,2.39-2.8,3.49-1.51,1.96-3.54,4.26-4.68,6.46-.33.85-.35,2.36-.33,3.44-.04,1.37.32,2.52.55,3.8.36,2.87.41,6.69.7,9.73.05,1.46.4,1.88.55,3.29.03,1.05-.58,2.09-.99,3.05-.88,2.42-3.89,3.75-6.39,3.1l-.26-.11Z" fill="#c8c2df"/>
</svg>