<svg width="236" height="51" viewBox="0 0 236 51" fill="none" xmlns="http://www.w3.org/2000/svg">
<g clip-path="url(#clip0_2309_3461)">
<mask id="mask0_2309_3461" style="mask-type:luminance" maskUnits="userSpaceOnUse" x="0" y="0" width="235" height="51">
<path d="M235 0H0V50.2128H235V0Z" fill="white"/>
</mask>
<g mask="url(#mask0_2309_3461)">
<mask id="mask1_2309_3461" style="mask-type:luminance" maskUnits="userSpaceOnUse" x="0" y="0" width="235" height="51">
<path d="M235 0H0V50.2128H235V0Z" fill="white"/>
</mask>
<g mask="url(#mask1_2309_3461)">
<path d="M140.478 7.11618C136.058 7.11618 132.848 10.2441 132.848 14.5519C132.848 18.8597 136.058 22.0122 140.478 22.0122C144.897 22.0122 148.076 18.872 148.076 14.5519C148.076 10.2318 144.879 7.11618 140.478 7.11618ZM140.478 19.1854C137.861 19.1854 136.033 17.2804 136.033 14.5519C136.033 11.8234 137.861 9.94299 140.478 9.94299C143.095 9.94299 144.891 11.8357 144.891 14.5519C144.891 17.2681 143.077 19.1854 140.478 19.1854Z" fill="#D1D409"/>
<path d="M106.034 7.11618C101.769 7.11618 98.6702 10.2441 98.6702 14.5519C98.6702 18.8597 101.905 22.0122 106.534 22.0122C108.972 22.0122 110.972 21.1888 112.312 19.634C112.411 19.5173 112.411 19.3514 112.312 19.2407L110.904 17.6061C110.849 17.5385 110.762 17.5016 110.676 17.5016C110.583 17.5016 110.503 17.5385 110.448 17.6C109.485 18.6569 108.195 19.1916 106.614 19.1916C104.158 19.1916 102.318 17.8273 101.88 15.7072H112.929C113.083 15.7072 113.213 15.5905 113.232 15.4368C113.256 15.1972 113.287 14.8653 113.287 14.638C113.287 10.2134 110.306 7.12233 106.034 7.12233M101.88 13.2737C102.256 11.2028 103.874 9.86925 106.034 9.86925C108.195 9.86925 109.812 11.2028 110.188 13.2737H101.874H101.88Z" fill="#D1D409"/>
<path d="M129.861 18.4419L127.922 17.2251C127.873 17.1944 127.817 17.176 127.762 17.176C127.657 17.176 127.564 17.2251 127.503 17.3112C126.7 18.5341 125.466 19.1793 123.941 19.1793C121.237 19.1793 119.416 17.3173 119.416 14.5458C119.416 11.7743 121.274 9.93687 123.941 9.93687C125.472 9.93687 126.7 10.5821 127.503 11.805C127.558 11.8911 127.657 11.9402 127.762 11.9402C127.824 11.9402 127.879 11.9218 127.929 11.8911L129.867 10.6497C130.003 10.5637 130.046 10.3855 129.966 10.2441C128.83 8.24693 126.645 7.10391 123.972 7.10391C119.491 7.10391 116.238 10.2318 116.238 14.5397C116.238 18.8475 119.491 22 123.972 22C126.639 22 128.824 20.8447 129.966 18.8352C130.046 18.6938 130.003 18.5156 129.861 18.4296" fill="#D1D409"/>
<path d="M123.966 28.5201C119.546 28.5201 116.336 31.648 116.336 35.9558C116.336 40.2636 119.546 43.4161 123.966 43.4161C128.385 43.4161 131.564 40.2759 131.564 35.9558C131.564 31.6357 128.367 28.5201 123.966 28.5201ZM123.966 40.5893C121.349 40.5893 119.522 38.6843 119.522 35.9558C119.522 33.2273 121.349 31.3469 123.966 31.3469C126.583 31.3469 128.379 33.2396 128.379 35.9558C128.379 38.672 126.565 40.5893 123.966 40.5893Z" fill="#87888A"/>
<path d="M112.639 39.8457L110.701 38.629L110.534 38.5245C110.534 38.5245 110.497 38.5061 110.478 38.5061C110.441 38.5061 110.411 38.5245 110.392 38.5552L110.287 38.7212C109.485 39.9441 108.25 40.5893 106.725 40.5893C104.022 40.5893 102.201 38.7273 102.201 35.9558C102.201 33.1843 104.059 31.3469 106.725 31.3469C108.256 31.3469 109.485 31.9921 110.287 33.215L110.398 33.3809C110.417 33.4117 110.454 33.4301 110.485 33.4301C110.503 33.4301 110.522 33.4301 110.54 33.4117L110.707 33.3072L112.645 32.0659L112.806 31.9614C112.855 31.9307 112.867 31.8692 112.843 31.8201L112.75 31.6541C111.614 29.6569 109.429 28.5139 106.756 28.5139C102.275 28.5139 99.022 31.6418 99.022 35.9497C99.022 40.2575 102.275 43.41 106.756 43.41C109.423 43.41 111.608 42.2547 112.75 40.2452L112.843 40.0793C112.873 40.0301 112.855 39.9686 112.806 39.9379L112.645 39.8396L112.639 39.8457Z" fill="#87888A"/>
<path d="M152.447 28.5201C150.249 28.5201 148.249 29.3927 147.064 30.8614C146.07 29.3497 144.329 28.5201 142.157 28.5201C140.305 28.5201 138.7 29.1162 137.607 30.21V28.7597C137.607 28.6983 137.558 28.6553 137.502 28.6553H134.663C134.607 28.6553 134.558 28.7044 134.558 28.7597V43.1519C134.558 43.2134 134.607 43.2564 134.663 43.2564H137.607C137.669 43.2564 137.712 43.2072 137.712 43.1519V35.7407C137.712 32.9815 139.138 31.3961 141.626 31.3961C143.805 31.3961 144.953 32.705 144.953 35.1877V43.1519C144.953 43.2134 145.002 43.2564 145.058 43.2564H148.002C148.064 43.2564 148.107 43.2072 148.107 43.1519V35.7407C148.107 32.9815 149.533 31.3961 152.021 31.3961C154.2 31.3961 155.348 32.705 155.348 35.1877V43.1519C155.348 43.2134 155.397 43.2564 155.453 43.2564H158.397C158.453 43.2564 158.502 43.2072 158.502 43.1519V34.8988C158.502 30.843 156.292 28.5201 152.44 28.5201" fill="#87888A"/>
<path d="M169.298 28.5201C167.415 28.5201 165.755 29.1653 164.588 30.3452V28.7597C164.588 28.6983 164.539 28.6553 164.483 28.6553H161.644C161.582 28.6553 161.539 28.7044 161.539 28.7597V48.277C161.539 48.3385 161.588 48.3815 161.644 48.3815H164.588C164.644 48.3815 164.693 48.3323 164.693 48.277V41.6463C165.866 42.7955 167.489 43.4223 169.298 43.4223C173.662 43.4223 176.711 40.3558 176.711 35.962C176.711 31.5681 173.662 28.5262 169.298 28.5262M169.088 40.5955C166.489 40.5955 164.675 38.6905 164.675 35.962C164.675 33.2335 166.489 31.353 169.088 31.353C171.687 31.353 173.532 33.2458 173.532 35.962C173.532 38.6782 171.705 40.5955 169.088 40.5955Z" fill="#87888A"/>
<path d="M189.637 42.015L188.841 40.1899L188.736 39.9502C188.736 39.9502 188.699 39.8949 188.662 39.8888C188.656 39.8888 188.643 39.8888 188.637 39.8888C188.612 39.8888 188.588 39.8949 188.569 39.9133L188.365 40.0731C187.89 40.448 187.236 40.6692 186.569 40.6692C185.328 40.6692 184.674 39.9625 184.674 38.6228V31.3469H188.6C188.662 31.3469 188.705 31.2977 188.705 31.2424V28.7597C188.705 28.6983 188.656 28.6553 188.6 28.6553H184.674V25.6994C184.674 25.6441 184.625 25.5949 184.569 25.5949H181.625C181.563 25.5949 181.52 25.6441 181.52 25.6994V28.6553H179.236C179.18 28.6553 179.131 28.7044 179.131 28.7597V31.2424C179.131 31.3039 179.18 31.3469 179.236 31.3469H181.52V38.7273C181.52 41.7078 183.254 43.4161 186.285 43.4161C187.588 43.4161 188.785 43.0351 189.563 42.3653L189.674 42.267C189.711 42.2363 189.723 42.1871 189.705 42.1441L189.649 42.0089L189.637 42.015Z" fill="#87888A"/>
<path d="M199.408 28.5201C195.143 28.5201 192.044 31.648 192.044 35.9558C192.044 40.2636 195.279 43.4161 199.908 43.4161C202.347 43.4161 204.347 42.5927 205.686 41.0379L205.797 40.9089C205.834 40.872 205.834 40.8106 205.797 40.7737L205.686 40.6446L204.279 39.01L204.131 38.8379C204.131 38.8379 204.081 38.8011 204.05 38.8011C204.05 38.8011 203.995 38.8134 203.97 38.8379L203.816 39.0039C202.853 40.0608 201.563 40.5955 199.983 40.5955C197.526 40.5955 195.686 39.2312 195.248 37.1111H206.476C206.532 37.1111 206.575 37.0681 206.581 37.0189L206.6 36.8407C206.618 36.6933 206.655 36.3184 206.655 36.0419C206.655 31.6173 203.674 28.5262 199.396 28.5262M195.242 34.6776C195.618 32.6067 197.236 31.2731 199.396 31.2731C201.557 31.2731 203.174 32.6067 203.55 34.6776H195.236H195.242Z" fill="#87888A"/>
<path d="M223.593 28.6553H220.648C220.593 28.6553 220.544 28.7044 220.544 28.7597V36.1955C220.544 38.9547 219.068 40.5402 216.5 40.5402C214.217 40.5402 213.013 39.2189 213.013 36.724V28.7597C213.013 28.6983 212.963 28.6553 212.908 28.6553H209.964C209.908 28.6553 209.859 28.7044 209.859 28.7597V37.0128C209.859 41.0809 212.173 43.4161 216.21 43.4161C217.994 43.4161 219.568 42.8016 220.679 41.677V43.1519C220.679 43.2072 220.729 43.2564 220.784 43.2564H223.599C223.655 43.2564 223.704 43.2072 223.704 43.1519V28.7597C223.704 28.6983 223.655 28.6553 223.599 28.6553" fill="#87888A"/>
<path d="M234.895 28.5201H234.697C232.58 28.5201 230.926 29.1469 229.883 30.3391V28.7597C229.883 28.6983 229.833 28.6553 229.778 28.6553H226.938C226.877 28.6553 226.833 28.7044 226.833 28.7597V43.1519C226.833 43.2134 226.883 43.2564 226.938 43.2564H229.883C229.945 43.2564 229.988 43.2072 229.988 43.1519V35.9804C229.988 33.172 231.494 31.5558 234.111 31.5558C234.29 31.5558 234.463 31.5558 234.654 31.5804L234.876 31.6111C234.876 31.6111 234.883 31.6111 234.889 31.6111C234.914 31.6111 234.938 31.5988 234.957 31.5866C234.981 31.5681 234.994 31.5374 234.994 31.5067V28.6246C234.994 28.5631 234.944 28.5201 234.889 28.5201" fill="#87888A"/>
<path d="M47.4369 38.42C37.6223 28.9932 39.7519 14.5089 49.2208 4.73797C58.6897 -5.03296 77.8312 2.18155 87.6457 11.6083C97.4603 21.0351 87.8062 35.7469 78.3373 45.5178C68.8684 55.2887 57.2576 47.853 47.4369 38.4262" fill="white"/>
<path d="M34.4682 46.9189C23.0672 54.1334 9.54906 48.7256 2.30234 37.3754C-4.94438 26.0189 6.48124 9.34691 17.8883 2.1324C29.2893 -5.08212 41.2705 7.59552 48.5172 18.9458C55.7639 30.296 45.8691 39.6983 34.4682 46.9189Z" fill="white"/>
<path d="M48.5293 18.9459C41.2764 7.58332 29.2891 -5.1066 17.8696 2.11406C6.45635 9.33471 -4.98162 26.0252 2.27128 37.3877C5.27737 42.095 9.35751 45.7821 13.9191 47.9698C19.135 40.7984 19.8881 32.4162 19.8943 32.3179L22.0177 32.49C21.9806 32.9017 21.2214 41.3084 15.9252 48.824C20.2646 50.4402 24.9374 50.7168 29.4804 49.2788C29.2891 39.4218 23.746 32.8833 23.6843 32.8095L25.3015 31.4269C25.5731 31.7403 31.1532 38.328 31.5977 48.4799C32.5668 48.0497 33.5235 47.5397 34.468 46.9436C45.8812 39.7229 55.7884 30.3084 48.5293 18.9459ZM27.82 9.11963C29.5237 9.11349 30.9125 10.4839 30.9248 12.18C30.931 13.876 29.5545 15.2587 27.8509 15.271C26.1472 15.2772 24.7583 13.9068 24.746 12.2107C24.7398 10.5146 26.1163 9.13192 27.82 9.11963ZM16.2833 30.6894L14.2154 31.2118C14.1352 30.9045 12.4192 23.5917 22.5917 16.6168L23.8016 18.3682C14.8389 24.5135 16.2709 30.628 16.2833 30.6894ZM34.4186 30.8246C30.3199 29.3621 27.5731 27.2235 26.2645 24.4582C25.9682 23.8375 25.7707 23.2353 25.6472 22.6637C24.1966 25.4352 23.8757 27.3649 23.8757 27.3894L21.7646 27.0699C21.7893 26.9101 22.4004 23.0325 25.925 18.1962L27.7891 19.1794C27.7027 19.4313 25.7336 25.4721 35.1346 28.8274L34.4186 30.8246Z" fill="#D1D409"/>
<path d="M77.4548 33.3011C73.5537 33.3011 70.3748 36.4597 70.3748 40.3497C70.3748 43.8524 72.9549 46.7653 76.3252 47.3061C77.0042 46.7899 77.6709 46.1938 78.3313 45.5178C80.3807 43.4038 82.4362 41.0564 84.3065 38.586C83.5164 35.5502 80.7449 33.3072 77.4548 33.3072" fill="#87888A"/>
<path d="M42.6963 31.734L43.7889 33.8357L49.3936 34.1921L51.8874 29.7245L42.8321 30.4189L42.6963 31.734Z" fill="white"/>
<path d="M87.6705 11.6084C77.8436 2.16928 58.6898 -5.04523 49.2086 4.73184C41.7705 12.4073 38.8632 22.9771 42.6902 31.734C43.8445 31.2301 45.1223 30.9474 46.4617 30.9474C51.6715 30.9474 55.9121 35.1692 55.9121 40.3558C55.9121 41.9351 55.5171 43.4223 54.8257 44.7312C61.0848 49.2603 67.6464 51.7614 73.6647 48.9714C70.3377 47.515 68.0044 44.2027 68.0044 40.3558C68.0044 35.1692 72.245 30.9474 77.4548 30.9474C81.2077 30.9474 84.4607 33.1413 85.9792 36.3061C91.7322 27.8687 94.7197 18.3743 87.6705 11.6022M69.1463 6.07765C70.85 6.07151 72.2388 7.4419 72.2512 9.13798C72.2574 10.8341 70.8809 12.2167 69.1772 12.229C67.4735 12.2352 66.0847 10.8648 66.0723 9.16871C66.0662 7.47262 67.4427 6.08994 69.1463 6.07765ZM60.7762 44.8541L59.3133 43.3117C59.3133 43.3117 61.0663 41.6525 62.4428 39.434C63.628 37.5351 64.7946 34.8005 63.6341 32.5636C61.2453 27.967 55.7146 27.7335 55.659 27.7335L55.7269 25.6134C56.0047 25.6195 62.5786 25.8961 65.5291 31.5927C68.5661 37.443 61.091 44.5592 60.77 44.8541M73.3252 25.6933C65.3687 24.1078 63.844 18.8782 63.628 15.9531C60.2206 18.3251 58.7762 22.338 58.7577 22.3871L56.7454 21.6866C56.8318 21.4408 58.9491 15.572 64.2823 13.1385L65.776 14.2877C65.7267 14.5888 64.6218 21.7972 73.7388 23.6162L73.3191 25.6994L73.3252 25.6933Z" fill="#87888A"/>
<path d="M46.4863 33.3011C45.5295 33.3011 44.6221 33.4916 43.7888 33.8357C44.7394 35.458 45.9493 37.0005 47.4307 38.42C49.2084 40.1284 51.0479 41.7753 52.9244 43.2625C53.3318 42.3714 53.5602 41.3882 53.5602 40.3496C53.5602 36.4659 50.3874 33.3011 46.4801 33.3011" fill="#87888A"/>
</g>
</g>
</g>
<defs>
<clipPath id="clip0_2309_3461">
<rect width="235" height="50.2128" fill="white"/>
</clipPath>
</defs>
</svg>
