<?xml version="1.0" encoding="UTF-8"?>
<svg id="Calque_1" data-name="Calque 1" xmlns="http://www.w3.org/2000/svg" viewBox="0 0 516.06 165.05">
  <defs>
    <style>
      .cls-1 {
        fill: #fff;
        stroke-width: 0px;
      }
    </style>
  </defs>
  <path class="cls-1" d="M168.91,48.07c-5.39,0-13.65,2.03-28.12,15.47.89,4.62,2.74,11.22,4.17,16.09,10.14-10.43,18.86-17.17,23.96-17.17.37,0,.52.05.53.05.34.25,1.61,2.4,1.55,8.35-.2,16.9-10.22,42.71-16.2,51.25-3.68-6.3-8.81-21.32-13.66-38.45l.04-.04c-1.46-4.76-3.8-12.77-4.96-18.52,0-.01,0-.03-.01-.04-.95-3.83-1.87-7.65-2.71-11.4-.87-3.89-4.75-6.33-8.6-5.44-3.88.87-6.31,4.74-5.44,8.62,1.95,8.59,3.83,16.28,5.61,23.16-2.33,2.69-4.78,5.6-7.35,8.75-4.42,5.43-8.58,10.81-12.3,15.78.4-12.37-.82-25.23-6.35-31.84-2.87-3.45-6.7-5.27-11.05-5.27-11.49,0-24.91,10.19-41.04,31.17-11.06,14.39-19.3,28.55-19.64,29.14-1.99,3.44-.81,7.85,2.62,9.83,1.14.66,2.38.98,3.6.98,2.49,0,4.91-1.3,6.25-3.6,12.4-21.43,36.3-53.13,48.04-53.21,3.24,2.34,4.99,22.33.3,48.32-.6,3.36,1.24,6.7,4.42,7.95,3.16,1.28,6.79.15,8.68-2.71,8.7-13.17,18.73-26.75,28.48-38.55,12.6,41.8,20.81,41.8,24.78,41.8,16.2,0,30.89-49.06,30.89-68.15,0-20.74-12.61-22.34-16.48-22.34Z"/>
  <circle class="cls-1" cx="120.74" cy="32.95" r="6.59"/>
  <path class="cls-1" d="M485.3,58.16c-2.91-2.69-6.54-4.04-10.89-4.04s-8,1.42-11.08,4.25c-1.47,1.32-2.6,2.91-3.46,4.73-.84,1.83-1.27,3.82-1.27,5.98,0,4.23,1.47,7.71,4.4,10.43,2.86,2.67,6.49,4.01,10.91,4.01s8.03-1.42,11.08-4.23c3.15-2.86,4.71-6.39,4.71-10.6s-1.47-7.81-4.4-10.55ZM481.48,76.11c-1.9,1.92-4.25,2.88-7.07,2.88-3.03,0-5.5-.96-7.47-2.88-.91-.91-1.63-1.99-2.16-3.24-.53-1.27-.79-2.62-.79-4.09,0-2.88.94-5.29,2.86-7.21,1.9-1.95,4.25-2.91,7.07-2.91,3,0,5.5.96,7.45,2.93,1.99,1.97,2.98,4.45,2.98,7.43s-.96,5.22-2.86,7.09Z"/>
  <path class="cls-1" d="M400.4,82.96l11.01-28.26h-5.14l-5.94,15.21c-.26.62-.53,1.35-.79,2.14l-1.51,4.73h-.34c-.24-.77-.48-1.54-.75-2.33l-.84-2.43c-.34-.94-2.6-6.7-6.73-17.33h-5.58l11.03,28.26h5.58Z"/>
  <polygon class="cls-1" points="435.1 43.23 431.83 39.96 422.41 48.04 425.05 50.59 435.1 43.23"/>
  <path class="cls-1" d="M452.64,82.96l.79-3.48c-1.27-.34-2.19-1.11-2.72-2.33-.26-.65-.38-1.92-.38-3.85v-34.46h-5.38v34.85c0,3.12.48,5.46,1.44,6.97,1.25,1.92,3.34,2.69,6.25,2.31Z"/>
  <path class="cls-1" d="M249.26,134.32c-2.36-.26-3.94-.96-4.73-2.11-.82-1.18-1.23-3.36-1.23-6.56v-8.41l7.98-2.68-1.34-3.99-6.63,2.23v-7.31h-1.44l-3.94,2.98v6.14l-6.18,2.07c-.31-1.27-.86-2.5-1.68-3.53-.22-.29-.46-.55-.7-.79-2.04-2.04-4.76-3.05-8.17-3.05-4.16,0-7.59,1.39-10.38,4.23-2.72,2.84-4.09,6.34-4.09,10.53,0,4.76,1.13,8.39,3.41,10.84,1.15,1.25,2.6,2.19,4.35,2.84s3.44.96,5.05.96,2.88-.05,3.89-.17c3.6-.36,6.37-1.11,8.31-2.23l-.91-4.04c-2.93,1.27-6.13,1.92-9.64,1.92-2.62,0-4.64-.65-6.08-1.97-1.27-1.15-2.14-2.69-2.62-4.61,0,0,0,0,0,0l25.43-8.54v7.39c0,1.78.17,3.46.48,5,1.06,5.19,4.4,7.43,10.05,6.7l.82-3.82ZM214.65,116.34c.74-.82,1.61-1.47,2.62-1.92,1.01-.48,2.11-.72,3.32-.72s2.26.19,3.12.58c1.29.53,2.94,1.91,3.5,3.92l-15.08,5.07-.02-.6c.19-2.57,1.03-4.66,2.55-6.32Z"/>
  <path class="cls-1" d="M316.98,138.69v-14.68c0-4.71-.79-8.17-2.4-10.43-.89-1.2-2.07-2.11-3.53-2.76-1.47-.65-3.03-.96-4.66-.96s-2.96.14-3.92.41c-2.72.7-4.9,2.02-6.56,3.94-1.83-2.91-4.97-4.35-9.47-4.35-3.22,0-6.06,1.08-8.51,3.24l-.79-2.67h-4.11v28.26h5.38v-20.31c.79-1.23,1.9-2.19,3.27-2.93.67-.34,1.39-.6,2.14-.79.75-.19,1.66-.29,2.76-.29s2.07.26,2.91.74c.87.5,1.59,1.32,2.16,2.48.6,1.13.89,3.39.89,6.78v14.32h5.36v-14.68c0-2.09-.14-3.97-.48-5.55.79-1.25,1.9-2.23,3.32-2.96.67-.34,1.39-.62,2.14-.82.77-.22,1.68-.31,2.79-.31s2.07.26,2.91.74c.87.5,1.59,1.32,2.16,2.48.6,1.13.89,3.39.89,6.78v14.32h5.36Z"/>
  <path class="cls-1" d="M359.64,115.6l-.91-5.17h-4.42v18.46s-.03,0-.03,0c.09,3.3-2.88,6.21-6.03,6.06-1.24-.12-1.92-.94-2.42-2.07-.26-.65-.41-1.92-.41-3.85v-9.04c0-1.75-.31-3.29-.94-4.57-1.85-3.73-5.67-5.58-11.51-5.58-3.72,0-6.92.67-9.54,1.97l1.49,4.04c1.03-.43,2.31-.77,3.8-1.06.67-.14,1.32-.24,1.97-.31.65-.07,1.37-.12,2.21-.12s1.71.1,2.64.29c2.88.55,4.4,2.36,4.49,5.43-3.77.07-6.99.46-9.68,1.13-6.68,1.68-10.02,5.02-10.02,10.05,0,2.43.99,4.4,2.93,5.89,1.8,1.39,4.04,2.09,6.68,2.09,3.82,0,7.45-1.39,10.89-4.18,1.08,2.84,4.01,3.87,7.52,3.87v-.02h0c2.19.07,4.26-.67,5.96-1.94v1.72h5.36v-13.96c.41-2.38,1.18-4.45,2.33-6.22.58-.91,1.25-1.68,2.04-2.28.77-.6,1.75-.91,2.96-.91s2.38.34,3.53,1.01l1.2-5.62c-.65-.29-1.27-.53-1.87-.67-.31-.05-.62-.1-.94-.12-.34-.02-.82-.05-1.49-.05s-1.42.14-2.21.46c-2.26.87-4.13,2.62-5.58,5.29ZM340.03,130.4c-1.03,1.18-2.33,2.16-3.92,2.96-.82.41-1.71.74-2.64.99-.96.26-2.02.38-3.22.38s-2.21-.31-3.1-.99c-.43-.31-.79-.72-1.06-1.2-.26-.48-.38-1.18-.38-2.11s.38-1.78,1.15-2.57c.77-.79,2.04-1.54,3.8-2.21,1.78-.67,4.9-1.11,9.37-1.35v6.1Z"/>
  <path class="cls-1" d="M458.12,136.84l-.91-4.04c-2.91,1.3-6.13,1.92-9.64,1.92-2.62,0-4.64-.65-6.08-1.95-1.01-.94-1.75-2.09-2.26-3.51,0,0,0-.01,0-.02l19.4-7.2-.04-.11.03.04s.13-.78,0-2.16h.01l-.02-.22s-.02-.12-.02-.17l-.02-.11c-.06-.44-.15-.94-.27-1.47,0-.03-.01-.06-.02-.1-.02-.08-.04-.16-.06-.24-.03-.11-.05-.22-.08-.34h0s0,0,0,0h0c-.33-1.27-.84-2.46-1.66-3.48-.24-.26-.46-.53-.72-.79-2.02-2.04-4.76-3.05-8.17-3.05-4.13,0-7.59,1.42-10.36,4.25-2.74,2.81-4.11,6.32-4.11,10.5,0,.82.02,1.61.12,2.38,0,0,0,0,0,0l-5.38,2v-4.98c0-9.42-4.3-14.15-12.88-14.15-3.7,0-6.95,1.01-9.73,3.03v-18.31l-5.38-.02v35.13-.02s-6.77,3.69-6.77,3.69c-.03.01-.06.03-.08.04-2.28.91-4.59,1.35-6.92,1.35-2.93,0-5.24-1.01-6.92-3.05-1.61-1.95-2.4-4.4-2.4-7.4,0-2.79.77-5.12,2.28-7.02,1.61-1.99,3.7-2.98,6.32-2.98,3.03,0,5.6.79,7.74,2.36l1.85-4.21c-2.33-1.71-5.36-2.57-9.08-2.57-4.16,0-7.62,1.42-10.38,4.25-2.74,2.81-4.11,6.32-4.11,10.5,0,4.49,1.23,8.03,3.65,10.62,2.5,2.69,5.91,4.01,10.29,4.01,4.09,0,7.26-.67,9.56-2.07l.07-.05s.02-.01.03-.02l4.87-2.67v4.25h5.38v-20.4c.41-.62.96-1.18,1.63-1.66,2.07-1.49,4.64-2.26,7.71-2.26,2.86,0,4.93.91,6.2,2.72,1.13,1.59,1.68,4.01,1.68,7.28l.05,14.32h5.34v-5.21l6.2-2.3s0,0,0,.01c.58,1.68,1.39,3.1,2.48,4.28,1.15,1.25,2.62,2.19,4.37,2.81,1.73.65,3.41.96,5.02.96s2.91-.05,3.89-.17c3.6-.34,6.37-1.08,8.31-2.23ZM438.61,124.99l-.1-1.78c.19-2.55,1.03-4.66,2.55-6.32.72-.82,1.59-1.44,2.6-1.92,1.01-.48,2.12-.7,3.34-.7s2.23.17,3.1.55c1.44.58,3.29,2.21,3.63,4.56l-15.11,5.61h0Z"/>
  <path class="cls-1" d="M421.16,82.57c1.75.62,3.44.96,5.05.96s2.91-.07,3.89-.17c3.6-.36,6.37-1.11,8.31-2.23l-.91-4.06c-2.91,1.3-6.13,1.92-9.64,1.92-2.62,0-4.64-.65-6.08-1.95-1.01-.94-1.75-2.11-2.26-3.51,0,0,0,0,0-.01l19.4-7.2-.04-.11.03.04s.32-1.77-.49-4.8h0s0,0,0,0c-.34-1.27-.87-2.45-1.66-3.46-.24-.29-.48-.55-.72-.82-2.04-2.02-4.76-3.05-8.17-3.05-4.13,0-7.59,1.42-10.38,4.25-2.72,2.81-4.09,6.32-4.09,10.5,0,4.78,1.13,8.39,3.41,10.86,1.15,1.25,2.6,2.19,4.35,2.84ZM421.33,61.16c.74-.82,1.61-1.44,2.62-1.92,1.01-.46,2.11-.7,3.32-.7s2.26.19,3.12.55c1.44.58,3.29,2.21,3.63,4.56l-15.12,5.61-.1-1.76c.17-2.57,1.03-4.69,2.52-6.34Z"/>
  <path class="cls-1" d="M290.21,82.57c1.75.62,3.44.96,5.02.96s2.91-.07,3.92-.17c3-.31,5.45-.89,7.3-1.73v.02s5.75-2.48,5.75-2.48c0,0,0,0,0,0,.46.74,1.08,1.42,1.85,2.02,1.8,1.39,4.04,2.09,6.68,2.09,3.8,0,7.4-1.39,10.84-4.16,1.06,2.81,3.36,4.01,6.87,3.6l.79-3.46c-1.27-.34-2.19-1.13-2.69-2.36-.26-.62-.41-1.9-.41-3.82v-8.99c0-1.75-.31-3.29-.94-4.57-1.85-3.7-5.65-5.55-11.46-5.55-3.73,0-6.9.67-9.52,1.97l1.49,4.01c1.03-.41,2.28-.77,3.77-1.03.67-.14,1.35-.24,1.97-.31.65-.07,1.37-.12,2.21-.12s1.71.1,2.64.29c2.86.53,4.35,2.33,4.47,5.41-3.75.07-6.97.43-9.66,1.13-6.49,1.63-9.83,4.85-9.95,9.68,0,0,0,0,0,.01l-5.84,2.52h-.05c-2.57.97-5.36,1.43-8.36,1.43-2.62,0-4.66-.65-6.08-1.95-1.03-.94-1.78-2.11-2.26-3.53l19.38-7.19-.04-.11.02.03s.13-.78,0-2.16h0v-.07l-.03-.2c-.07-.61-.2-1.32-.4-2.14-.02-.07-.03-.14-.04-.21v-.02c-.36-1.27-.87-2.45-1.68-3.46-.22-.29-.46-.55-.7-.82-2.04-2.02-4.76-3.05-8.17-3.05-4.16,0-7.62,1.42-10.38,4.25-2.74,2.81-4.11,6.32-4.11,10.5,0,4.78,1.15,8.39,3.44,10.86,1.15,1.25,2.6,2.19,4.35,2.84ZM317.65,71.93c.77-.79,2.04-1.51,3.8-2.19,1.75-.67,4.85-1.11,9.32-1.35v6.08c-1.03,1.18-2.33,2.14-3.92,2.93-.79.41-1.68.74-2.62,1.01-.96.24-2.02.38-3.2.38s-2.24-.34-3.1-.99c-.43-.34-.79-.72-1.06-1.2-.26-.48-.38-1.18-.38-2.09s.38-1.78,1.15-2.6ZM290.38,61.16c.74-.82,1.61-1.44,2.62-1.92,1.01-.46,2.11-.7,3.32-.7s2.24.19,3.1.55c1.46.6,3.31,2.21,3.65,4.56l-15.14,5.62h0s-.1-1.76-.1-1.76c.19-2.57,1.03-4.69,2.55-6.34Z"/>
  <path class="cls-1" d="M235.15,82.57c1.73.62,3.41.96,5.02.96s2.91-.07,3.89-.17c3.6-.36,6.37-1.11,8.32-2.23l-.91-4.06c-2.91,1.3-6.13,1.92-9.64,1.92-2.62,0-4.64-.65-6.08-1.95-1.01-.94-1.75-2.11-2.26-3.51,0,0,0,0,0-.01l19.4-7.2-.04-.11.03.04s.13-.78,0-2.16h.01l-.02-.22s-.02-.12-.02-.17l-.02-.12c-.06-.43-.15-.92-.27-1.45,0-.04-.02-.08-.02-.12-.03-.1-.05-.21-.08-.31-.02-.09-.04-.17-.06-.26h0s0,0,0,0h0c-.33-1.27-.84-2.46-1.65-3.46-.22-.29-.46-.55-.72-.82-2.02-2.02-4.76-3.05-8.17-3.05-4.13,0-7.59,1.42-10.36,4.25-2.74,2.81-4.11,6.32-4.11,10.5,0,4.78,1.15,8.39,3.41,10.86,1.15,1.25,2.62,2.19,4.37,2.84ZM235.32,61.16c.72-.82,1.59-1.44,2.6-1.92,1.01-.46,2.11-.7,3.34-.7s2.24.19,3.1.55c1.44.58,3.29,2.21,3.63,4.56l-15.12,5.61-.1-1.76c.19-2.57,1.03-4.69,2.55-6.34Z"/>
  <polygon class="cls-1" points="249.84 43.16 246.57 39.89 237.19 47.97 239.81 50.49 249.84 43.16"/>
  <path class="cls-1" d="M272.21,78.08c-.58.34-1.2.6-1.9.74s-1.42.22-2.21.22-1.63-.07-2.55-.22c-2.86-.48-5.38-1.47-7.59-2.98l-1.99,3.87c.7.6,1.51,1.13,2.45,1.56,2.74,1.35,5.84,2.02,9.25,2.02s5.96-.7,8.08-2.11c2.4-1.56,3.58-3.77,3.58-6.61,0-2.19-.99-4.06-2.96-5.62-1.01-.82-2.84-1.66-5.46-2.55l-3.1-.96c-1.01-.31-1.92-.65-2.72-.99-.77-.36-1.42-.74-1.9-1.2-.48-.46-.7-.99-.7-1.61s.12-1.13.41-1.54c.87-1.23,2.36-1.85,4.47-1.85,3.03,0,5.98.91,8.89,2.69l2.07-3.92c-2.81-2.02-6.54-3.03-11.15-3.03-2.57,0-4.83.65-6.78,1.95-1.01.67-1.8,1.49-2.38,2.48-.6.99-.89,2.09-.89,3.34s.24,2.31.72,3.15c.48.84,1.23,1.66,2.21,2.45,1.01.79,2.84,1.63,5.48,2.52l3.1,1.03c1.01.31,1.92.65,2.72,1.01,1.75.79,2.64,1.8,2.64,3,0,1.37-.6,2.43-1.8,3.15Z"/>
  <path class="cls-1" d="M352.93,83.29c3.68,0,6.8-1.08,9.4-3.29l.82,2.74h4.09v-28.17h-5.36v20.24c-.38.6-.87,1.13-1.47,1.61-1.87,1.59-4.23,2.38-7.11,2.38s-4.81-.91-5.94-2.74c-.99-1.54-1.47-3.94-1.47-7.21v-14.28h-5.36v14.61c0,4.81.91,8.32,2.74,10.53,1.92,2.4,5.14,3.58,9.66,3.58Z"/>
  <path class="cls-1" d="M213.21,68.49c.38-2.38,1.15-4.45,2.31-6.2.58-.94,1.25-1.68,2.04-2.28.77-.6,1.75-.91,2.96-.91s2.36.34,3.51,1.01l1.2-5.6c-.65-.29-1.27-.53-1.87-.67-.31-.05-.62-.1-.94-.12s-.82-.05-1.49-.05-1.39.14-2.21.46c-2.24.87-4.09,2.62-5.53,5.26l-.91-5.14h-4.42v28.14h5.36v-13.89Z"/>
</svg>