<svg width="81" height="78" viewBox="0 0 81 78" fill="none" xmlns="http://www.w3.org/2000/svg">
<path d="M44.0078 34.9927H63.2113C67.6921 34.9927 69.9325 34.9927 71.6395 35.8595C73.1464 36.633 74.3733 37.8465 75.1334 39.3535C76.0003 41.0604 76.0003 43.3008 76.0003 47.7817V74.9866" stroke="#C6CE41" stroke-width="6" stroke-miterlimit="10"/>
<path d="M44.0069 74.9997V15.789C44.0069 11.3082 44.0069 9.06775 43.1401 7.36077C42.3666 5.85383 41.1531 4.62695 39.6461 3.86682C37.9392 2.99999 35.6988 3 31.218 3H16.8153C12.3345 3 10.0941 2.99999 8.38716 3.86682C6.88022 4.64029 5.65333 5.85383 4.89319 7.36077C4.02637 9.06775 4.02637 11.3082 4.02637 15.789V74.9997" stroke="#D671A9" stroke-width="6" stroke-miterlimit="10"/>
<path d="M18.0029 18.9897H30.0051" stroke="#E94F35" stroke-width="6" stroke-linejoin="round"/>
<path d="M18.0029 34.9927H30.0051" stroke="#E94F35" stroke-width="6" stroke-linejoin="round"/>
<path d="M18.0029 50.9956H30.0051" stroke="#E94F35" stroke-width="6" stroke-linejoin="round"/>
<path d="M80.0145 75H0" stroke="#9185BE" stroke-width="6" stroke-miterlimit="10"/>
</svg>
