<svg width="80" height="78" viewBox="0 0 80 78" fill="none" xmlns="http://www.w3.org/2000/svg">
<path d="M22 34.9868H10.4C8.16 34.9868 7.04 34.9868 6.18667 35.4268C5.44 35.8135 4.82667 36.4268 4.44 37.1735C4 38.0268 4 39.1468 4 41.3868V74.9868M58 34.9868H69.6C71.84 34.9868 72.96 34.9868 73.8133 35.4268C74.56 35.8135 75.1733 36.4268 75.56 37.1735C76 38.0268 76 39.1468 76 41.3868V74.9868" stroke="#C6CE41" stroke-width="6" stroke-miterlimit="10"/>
<path d="M36 18.9868H44" stroke="#E94F35" stroke-width="6" stroke-linejoin="round"/>
<path d="M36 34.9868H44" stroke="#E94F35" stroke-width="6" stroke-linejoin="round"/>
<path d="M36 50.9868H44" stroke="#E94F35" stroke-width="6" stroke-linejoin="round"/>
<path d="M57.9997 74.9867V15.7867C57.9997 11.3067 57.9997 9.06667 57.133 7.36C56.3597 5.85333 55.1464 4.62667 53.6397 3.86667C51.933 3 49.693 3 45.213 3H34.813C30.333 3 28.093 3 26.3864 3.86667C24.8797 4.64 23.653 5.85333 22.893 7.36C22.0264 9.06667 22.0264 11.3067 22.0264 15.7867V74.9867" stroke="#9185BE" stroke-width="6" stroke-miterlimit="10"/>
<path d="M80 74.9868H0" stroke="#B3D7E7" stroke-width="6" stroke-miterlimit="10"/>
</svg>
