<svg width="70" height="74" viewBox="0 0 70 74" fill="none" xmlns="http://www.w3.org/2000/svg">
<path d="M66.9754 28.0977H3.75586" stroke="#B3D7E7" stroke-width="6" stroke-miterlimit="10"/>
<path d="M66.9754 23.8829C66.9754 17.9825 66.9754 15.0322 65.8281 12.7727C64.8212 10.7942 63.2056 9.17856 61.2271 8.17173C58.9676 7.02441 56.0173 7.02441 50.1168 7.02441H20.6144C14.7139 7.02441 11.7637 7.02441 9.50415 8.17173C7.52562 9.17856 5.91001 10.7942 4.90318 12.7727C3.75586 15.0322 3.75586 17.9825 3.75586 23.8829V53.3854" stroke="#167FA2" stroke-width="6" stroke-miterlimit="10"/>
<path d="M49.4141 0V14.0488" stroke="#E94F35" stroke-width="6" stroke-linejoin="round"/>
<path d="M21.3164 0V14.0488" stroke="#C6CE41" stroke-width="6" stroke-miterlimit="10"/>
<path d="M3.75586 53.3852C3.75586 59.2857 3.75586 62.236 4.90318 64.4955C5.91001 66.474 7.52562 68.0896 9.50415 69.0965C11.7637 70.2438 14.7139 70.2438 20.6144 70.2438H50.1168C56.0173 70.2438 58.9676 70.2438 61.2271 69.0965C63.2056 68.0896 64.8212 66.474 65.8281 64.4955C66.9754 62.236 66.9754 59.2857 66.9754 53.3852V23.8828" stroke="#EEB4D3" stroke-width="6" stroke-miterlimit="10"/>
</svg>
