<svg width="76" height="73" viewBox="0 0 76 73" fill="none" xmlns="http://www.w3.org/2000/svg">
<path d="M72.9762 15.5449L51.8611 36.66C51.0968 37.4242 50.7082 37.8129 50.2678 37.9554C49.8792 38.0849 49.4517 38.0849 49.0631 37.9554C48.6226 37.8129 48.234 37.4242 47.4697 36.66" stroke="#E94F35" stroke-width="6" stroke-linecap="round" stroke-linejoin="round"/>
<path d="M26.6655 69.9516H9.24234C7.06606 69.9516 5.97793 69.9516 5.14887 69.5242C4.42345 69.1485 3.82756 68.5526 3.4519 67.8272C3.02441 66.9981 3.02441 65.91 3.02441 63.7337V0" stroke="#9185BE" stroke-width="6" stroke-miterlimit="10"/>
<path d="M47.4568 36.6602L40.1896 29.393C39.4253 28.6288 39.0367 28.2401 38.5962 28.0976C38.2076 27.9681 37.7801 27.9681 37.3915 28.0976C36.9511 28.2401 36.5624 28.6288 35.7982 29.393L18.5693 46.6219" stroke="#C6CE41" stroke-width="6" stroke-miterlimit="10"/>
<path d="M57.4307 15.5449H72.9755V31.0897" stroke="#E94F35" stroke-width="6" stroke-linecap="round" stroke-linejoin="round"/>
<path d="M72.9766 69.9517H26.666" stroke="#B3D7E7" stroke-width="6" stroke-miterlimit="10"/>
</svg>
