<?xml version="1.0" encoding="UTF-8"?>
<svg id="a" data-name="svg1" xmlns="http://www.w3.org/2000/svg" viewBox="0 0 370.22 370.31">
  <path id="b" data-name="path2-7" d="M193.62.34C122.84,74.8,59.84,100.43,4.5,116.61c-1.17,2.11-5.12,7.52-5.74,8.94,9.23,20.14,106.86,91.94,81.71,211.06-1.79,8.37-3.89,16.05-6.76,24.51-.18.51-.25,1,.04,1.4.41.49.98.75,1.65.99,74.88,28.09,142.33-36.07,195.64-26.73,16.29,2.9,30.42,8.65,42.22,14.01,11.06,4.46,29.44,16.38,37.87,10.54,26.95-41.62-36.1-105.08-26.48-164.55,2.71-14.99,7.41-30.39,13.73-43.51,4.36-9.26,9.24-17.61,14.4-26.68,5.07-8.91,10.41-18.51,15.79-30.34.27-.55.54-1.32.3-1.81-76.05-17.66-103.79-26.78-175.06-94.11h-.19ZM189.61,119.63c6.88.02,12.34,8,10.17,14.38-.27.79-.54,1.62-.12,2.4.37.65.98,1.21,1.66,1.66,1.04.69,2.81.69,3.75,1.69,1.17,1.4,2.19,3.18,3.21,4.67,1.45,2.19,3.05,4.41,4.35,6.67,3.62,4.87,6.66,10.38,10,15.37,1.72,2.37,3.37,5.3,4.94,7.66,1.1,1.84,2.32,3.83,2.94,5.96.19,1.55.54,5.63-.38,7.4-1.46,1.75-2.8,3.79-4.36,5.6-1.76,2.11-3.43,3.88-5,6.03-1.59,1.92-3.27,3.78-4.83,5.84-1.92,2.57-4.85,5.59-6.44,8.52-.5,1.4-.38,3.82-.25,5.29.88,3.65.77,8.41,1.16,12.08.05,1.4.4,1.75.51,3.02.02,1.11-.57,2.08-.99,3.09-.78,2.05-3.14,3.3-5.26,3.18-3.33-.17-4.83-3.62-5.16-6.47-.59-6.49-2.16-17.48-1.41-23.87.35-1.97,1.61-3.68,2.4-5.5.76-1.47,1.56-3.12,2.3-4.55.31-.76.76-1.19.85-1.86-.07-.2-.56-.24-1.3-.3-2.69-.16-5.49-.16-8.18-.11-2.5.11-3.17.31-1.18,2.84,4.96,5.31,2.69,12.6-5.25,9.97-.66-.3-1.12-.78-1.51-1.35-1.5-2.39-3.19-4.69-5.04-7.04-1.43-1.69-2.45-3.58-3.79-5.42-1.51-1.84-2.24-4.97-.89-7.02,1.46-1.6,4.27-1.84,6.15-2.45,5.7-1.07,13.37-1.56,19.21-2.49.94-.17,1.65-.41,3.07-.59.92-.15,2.87-.2,2.4-1.57-1.38-2.58-3.18-5.1-4.78-7.61-1.22-2.32-2.52-4.46-4.07-6.56-.87-1.68-1.99-3.25-2.97-4.84-.36-.59-.35-.55-.62-1-.79-1.55-2.92-1.7-4.47-1.42-.73.19-.75.46-1.03.92-1.78,2.48-18.72,19.2-21.86,21.61-1.02.76-2.45,1.19-3.69.32-10.89-3.84,20.58-27.01,23.53-31.96,2.16-2.06,5.47-4.86,5.53-7.58,0-1.03-.4-2.09-1.1-2.62-.6-.38-1.13-.37-2.02-.46-1.2-.1-2.42-.08-3.51-.29-3.65-1.13-6.32-4.8-7.43-8.19-1.02-3.45.64-7.41,3.02-9.92,2.09-1.77,4.87-3.18,7.54-3.16h.18ZM156.19,192.45c7.77-.22,11.99,1.52,17.2,5.54,3.78,2.33,6.94,7.01,8.95,10.37.55.94.89,2.55,1.29,3.33.14.36.29.68.38,1.08.33,1.98.95,3.68,1.18,5.67.61,6.2-1.23,13.39-4.46,18.2-2.81,3.96-6.5,7.56-10.57,10.04-1.3.86-2.96,1.62-4.61,2.03-4.14,1.25-9.2,2.74-13.42,1.29-9.9-1.23-16.77-6.93-21.78-15.01-.97-1.99-1.81-4.34-2.48-6.39-.49-1.01-.58-1.79-.64-2.94-.12-3.25-.31-7.89.25-10.78.43-.95.77-2.5,1.12-3.59,1.45-2.99,2.92-6.81,5.51-8.94.53-.42.95-.94,1.32-1.5.66-1.09,1.94-1.88,3.02-2.83,1.67-1.32,3.79-2.34,5.69-3.32,2.33-1.22,3.84-1.9,6.82-2.15,1.56-.13,3.44-.13,5.03-.12h.2ZM248.11,192.46c2.13.02,4.68-.02,6.77.41,2.98.64,6,2.32,8.79,3.69,5.49,3.91,10.17,9.05,12.14,15.83,1.82,6.41,1.98,12.82-.26,18.79-1.07,2.23-2.24,5.02-4,6.98-1.9,2.5-4.08,5.39-6.69,6.76-1.71,1.26-3.81,2.51-5.68,3.32-1.77.57-3.36,1.3-5.26,1.51-3.48.73-6.76,1.44-10.06.22-5.81-.59-10.8-3.34-15.07-7.09-1.73-1.08-2.68-2.95-3.96-4.38-1.49-2.17-3.09-4.25-3.98-6.77-.63-1.15-.84-2.74-1.18-4-.31-1.07-.47-1.05-.54-2.26-.16-2.37-.14-6.51.01-8.54.06-.92.19-1.04.44-1.79.87-3.46,2.17-7.39,4.39-10.21.88-1.58,1.8-2.79,3.29-3.91,1.92-2.02,4.16-3.51,6.49-5.05,2.66-1.52,5.06-2.8,8.09-3.22,1.49-.25,4.31-.28,6.11-.28h.15Z" fill="#f4a799"/>
</svg>