<svg width="82" height="76" viewBox="0 0 82 76" fill="none" xmlns="http://www.w3.org/2000/svg">
<path d="M48.5977 49.3966L59.4999 38.4944C61.0067 36.9876 61.7538 36.2405 62.6275 35.9619C63.3873 35.7087 64.2103 35.7087 64.9701 35.9619C65.8311 36.2405 66.5908 37.0002 68.0977 38.4944L78.9999 49.3966" stroke="#B3D7E7" stroke-width="6" stroke-miterlimit="10"/>
<path d="M11.6494 71.1503L36.7082 46.0915C38.215 44.5847 38.9621 43.8376 39.8358 43.5591C40.5955 43.3058 41.4186 43.3058 42.1783 43.5591C43.0393 43.8376 43.7991 44.5974 45.3059 46.0915L70.2 70.9857" stroke="#C6CE41" stroke-width="6" stroke-miterlimit="10"/>
<path d="M78.9877 53.9544C78.9877 60.3362 78.9877 63.5271 77.7468 65.971C76.6578 68.1109 74.9104 69.8583 72.7705 70.9472C70.3266 72.1882 67.1357 72.1881 60.7539 72.1881H21.2474C14.8656 72.1881 11.6747 72.1882 9.23088 70.9472C7.09094 69.8583 5.34354 68.1109 4.25458 65.971C3.01367 63.5271 3.01367 60.3362 3.01367 53.9544V22.0453C3.01367 15.6635 3.01367 12.4726 4.25458 10.0287C5.34354 7.8888 7.09094 6.14141 9.23088 5.05245C11.6747 3.81154 14.8656 3.81152 21.2474 3.81152" stroke="#9185BE" stroke-width="6" stroke-miterlimit="10"/>
<path d="M78.9877 54V22.0453C78.9877 15.6635 78.9877 12.4726 77.7468 10.0287C76.6578 7.8888 74.9104 6.14141 72.7705 5.05245C70.3266 3.81154 67.1357 3.81152 60.7539 3.81152H21" stroke="#ECB2D2" stroke-width="6" stroke-miterlimit="10"/>
<path d="M25.8054 34.2011C30.0013 34.2011 33.4028 30.7997 33.4028 26.6037C33.4028 22.4078 30.0013 19.0063 25.8054 19.0063C21.6095 19.0063 18.208 22.4078 18.208 26.6037C18.208 30.7997 21.6095 34.2011 25.8054 34.2011Z" stroke="#F4C460" stroke-width="6" stroke-linejoin="round"/>
</svg>
